# Blender v2.78 (sub 0) OBJ File: 'GroundTiles.blend'
# www.blender.org
v -1.000000 0.000000 1.000000
v -4.000000 0.000000 -1.000000
v -4.000000 0.000000 1.000000
v 1.000000 2.000000 1.000000
v -1.000000 2.000000 1.000000
v -1.000000 0.000000 4.000000
v 1.000000 0.000000 4.000000
v 1.000000 0.000000 -1.000000
v 1.000000 0.000000 1.000000
v 4.000000 0.000000 1.000000
v 4.000000 0.000000 -1.000000
v -1.000000 0.000000 -1.000000
v -1.000000 2.000000 -1.000000
v 1.000000 2.000000 -1.000000
v 1.000000 0.000000 -4.000000
v -1.000000 0.000000 -4.000000
vn -0.5547 0.8321 0.0000
vn -1.0000 0.0000 0.0000
vn 0.0000 0.0000 1.0000
vn 0.0000 0.0000 -1.0000
vn 0.0000 0.8321 0.5547
vn 1.0000 0.0000 0.0000
vn 0.5547 0.8321 0.0000
vn 0.0000 0.8321 -0.5547
vn 0.0000 1.0000 -0.0000
s off
f 5//1 13//1 2//1 3//1
f 6//2 5//2 1//2
f 5//3 3//3 1//3
f 12//4 2//4 13//4
f 4//5 5//5 6//5 7//5
f 4//6 7//6 9//6
f 14//7 4//7 10//7 11//7
f 15//6 14//6 8//6
f 14//4 11//4 8//4
f 9//3 10//3 4//3
f 13//8 14//8 15//8 16//8
f 13//2 16//2 12//2
f 4//9 14//9 13//9 5//9
